<svg width="23" height="23" viewBox="0 0 23 23" fill="none" xmlns="http://www.w3.org/2000/svg">
<g clip-path="url(#clip0_4044_739)">
<path d="M11.4999 0C14.6245 0 15.0144 0.0115091 16.2402 0.0689998C17.465 0.126504 18.2988 0.318558 19.0325 0.603748C19.7915 0.895852 20.4309 1.29146 21.0702 1.9297C21.6551 2.50458 22.1076 3.19998 22.3963 3.96749C22.6803 4.70005 22.8735 5.53495 22.931 6.75969C22.985 7.98558 23 8.37543 23 11.4999C23 14.6245 22.9884 15.0144 22.931 16.2402C22.8735 17.465 22.6803 18.2988 22.3963 19.0325C22.1084 19.8003 21.6557 20.496 21.0702 21.0702C20.4952 21.6548 19.7999 22.1073 19.0325 22.3963C18.2999 22.6803 17.465 22.8735 16.2402 22.931C15.0144 22.985 14.6245 23 11.4999 23C8.37543 23 7.98558 22.9884 6.75969 22.931C5.53495 22.8735 4.70119 22.6803 3.96749 22.3963C3.19967 22.1081 2.50416 21.6555 1.9297 21.0702C1.34482 20.4954 0.89232 19.8001 0.603748 19.0325C0.318558 18.2999 0.126504 17.465 0.0689998 16.2402C0.0149591 15.0144 0 14.6245 0 11.4999C0 8.37543 0.0115091 7.98558 0.0689998 6.75969C0.126504 5.53379 0.318558 4.70119 0.603748 3.96749C0.891519 3.19951 1.34413 2.50392 1.9297 1.9297C2.50432 1.34461 3.19978 0.892085 3.96749 0.603748C4.70119 0.318558 5.53379 0.126504 6.75969 0.0689998C7.98558 0.0149591 8.37543 0 11.4999 0ZM11.4999 5.74999C9.97499 5.74999 8.51245 6.35579 7.43412 7.43412C6.35579 8.51245 5.74999 9.97499 5.74999 11.4999C5.74999 13.025 6.35579 14.4875 7.43412 15.5658C8.51245 16.6441 9.97499 17.25 11.4999 17.25C13.025 17.25 14.4875 16.6441 15.5658 15.5658C16.6441 14.4875 17.25 13.025 17.25 11.4999C17.25 9.97499 16.6441 8.51245 15.5658 7.43412C14.4875 6.35579 13.025 5.74999 11.4999 5.74999ZM18.975 5.46249C18.975 5.08124 18.8234 4.71561 18.5539 4.44603C18.2843 4.17645 17.9187 4.02499 17.5374 4.02499C17.1563 4.02499 16.7906 4.17645 16.5211 4.44603C16.2514 4.71561 16.1 5.08124 16.1 5.46249C16.1 5.84373 16.2514 6.20936 16.5211 6.47896C16.7906 6.74854 17.1563 6.89998 17.5374 6.89998C17.9187 6.89998 18.2843 6.74854 18.5539 6.47896C18.8234 6.20936 18.975 5.84373 18.975 5.46249ZM11.4999 8.04999C12.415 8.04999 13.2926 8.41347 13.9395 9.06046C14.5864 9.70746 14.9499 10.585 14.9499 11.4999C14.9499 12.415 14.5864 13.2926 13.9395 13.9395C13.2926 14.5864 12.415 14.9499 11.4999 14.9499C10.585 14.9499 9.70746 14.5864 9.06046 13.9395C8.41347 13.2926 8.04999 12.415 8.04999 11.4999C8.04999 10.585 8.41347 9.70746 9.06046 9.06046C9.70746 8.41347 10.585 8.04999 11.4999 8.04999Z" fill="#F77128"/>
</g>
<defs>
<clipPath id="clip0_4044_739">
<rect width="23" height="23" fill="white"/>
</clipPath>
</defs>
</svg>
